<svg width="760" height="760" viewBox="0 0 760 760" fill="none" xmlns="http://www.w3.org/2000/svg">
<path d="M520.226 528.042H588.498C594.156 528.042 598.74 523.458 598.74 517.8V148.638C598.74 142.333 593.63 137.226 587.328 137.226H414.331L520.226 528.042Z" fill="#F1F1F1"/>
<path d="M598.74 432.258V148.638C598.74 142.333 593.63 137.226 587.328 137.226H414.331L598.74 432.258Z" fill="#F1F1F1"/>
<path d="M598.74 299.622C598.369 299.622 598.068 299.321 598.068 298.951V148.638C598.068 142.716 593.25 137.897 587.328 137.897H414.331C413.96 137.897 413.659 137.596 413.659 137.226C413.659 136.855 413.96 136.554 414.331 136.554H587.328C593.992 136.554 599.415 141.974 599.415 148.641V298.954C599.412 299.321 599.111 299.622 598.74 299.622Z" fill="#1F1F1F"/>
<path d="M520.226 528.042H588.498C591.815 528.042 594.764 526.464 596.637 524.02L520.226 528.042Z" fill="#F1F1F1"/>
<path d="M588.498 528.714H520.226C519.855 528.714 519.554 528.413 519.554 528.042C519.554 527.671 519.855 527.37 520.226 527.37H588.498C591.502 527.37 594.274 525.999 596.101 523.613C596.326 523.318 596.749 523.263 597.044 523.488C597.339 523.713 597.393 524.136 597.168 524.43C595.086 527.151 591.924 528.714 588.498 528.714Z" fill="#1F1F1F"/>
<path d="M518.013 544.786C517.283 548.48 514.043 551.14 510.279 551.14H111.364C106.397 551.14 102.667 546.601 103.631 541.725L182.944 143.473C183.674 139.779 186.914 137.119 190.678 137.119H589.593C594.56 137.119 598.29 141.658 597.327 146.534L518.013 544.786Z" fill="#F1F1F1"/>
<path d="M510.279 551.812H111.364C108.796 551.812 106.385 550.672 104.752 548.687C103.12 546.701 102.472 544.114 102.971 541.594L182.284 143.342C183.075 139.348 186.604 136.447 190.678 136.447H589.593C592.162 136.447 594.572 137.587 596.205 139.572C597.837 141.558 598.485 144.145 597.986 146.665L518.67 544.92C517.882 548.911 514.35 551.812 510.279 551.812ZM190.678 137.791C187.246 137.791 184.27 140.235 183.604 143.604L104.287 541.859C103.868 543.984 104.415 546.163 105.789 547.835C107.163 549.51 109.194 550.468 111.361 550.468H510.276C513.708 550.468 516.685 548.024 517.35 544.655L596.667 146.403C597.086 144.278 596.539 142.099 595.165 140.427C593.791 138.752 591.76 137.794 589.593 137.794H190.678V137.791Z" fill="#1F1F1F"/>
<path d="M212.107 391.777H165.859C165.659 391.777 165.47 391.689 165.343 391.534C165.215 391.379 165.163 391.175 165.2 390.98L173.551 347.122C173.611 346.806 173.888 346.575 174.21 346.575H220.458C220.658 346.575 220.847 346.663 220.975 346.818C221.102 346.973 221.154 347.177 221.117 347.372L212.767 391.23C212.706 391.546 212.429 391.777 212.107 391.777ZM166.671 390.43H211.551L219.646 347.916H174.767L166.671 390.43Z" fill="#1F1F1F"/>
<path d="M217.889 391.102L226.24 347.247H272.484L264.133 391.102H217.889Z" fill="#F1F1F1"/>
<path d="M316.163 391.777H269.916C269.715 391.777 269.526 391.689 269.399 391.534C269.271 391.379 269.219 391.175 269.256 390.98L277.607 347.122C277.668 346.806 277.944 346.575 278.266 346.575H324.514C324.715 346.575 324.903 346.663 325.031 346.818C325.158 346.973 325.21 347.177 325.174 347.372L316.823 391.23C316.762 391.546 316.485 391.777 316.163 391.777ZM270.727 390.43H315.607L323.702 347.916H278.823L270.727 390.43Z" fill="#1F1F1F"/>
<path d="M368.19 391.777H321.942C321.741 391.777 321.553 391.689 321.425 391.534C321.298 391.379 321.246 391.175 321.282 390.98L329.633 347.122C329.694 346.806 329.971 346.575 330.293 346.575H376.54C376.741 346.575 376.93 346.663 377.057 346.818C377.185 346.973 377.237 347.177 377.2 347.372L368.849 391.23C368.791 391.546 368.512 391.777 368.19 391.777ZM322.757 390.43H367.636L375.732 347.916H330.852L322.757 390.43Z" fill="#1F1F1F"/>
<path d="M420.219 391.777H373.972C373.771 391.777 373.583 391.689 373.455 391.534C373.327 391.379 373.276 391.175 373.312 390.98L381.663 347.122C381.724 346.806 382 346.575 382.323 346.575H428.57C428.771 346.575 428.959 346.663 429.087 346.818C429.215 346.973 429.266 347.177 429.23 347.372L420.879 391.23C420.818 391.546 420.541 391.777 420.219 391.777ZM374.783 390.43H419.663L427.758 347.916H382.879L374.783 390.43Z" fill="#1F1F1F"/>
<path d="M472.246 391.777H425.998C425.798 391.777 425.609 391.689 425.481 391.534C425.354 391.379 425.302 391.175 425.339 390.98L433.689 347.122C433.75 346.806 434.027 346.575 434.349 346.575H480.597C480.797 346.575 480.986 346.663 481.113 346.818C481.241 346.973 481.293 347.177 481.256 347.372L472.905 391.23C472.845 391.546 472.568 391.777 472.246 391.777ZM426.81 390.43H471.689L479.785 347.916H434.905L426.81 390.43Z" fill="#1F1F1F"/>
<path d="M524.272 391.777H478.025C477.824 391.777 477.636 391.689 477.508 391.534C477.38 391.379 477.329 391.175 477.365 390.98L485.716 347.122C485.777 346.806 486.053 346.575 486.376 346.575H532.623C532.824 346.575 533.012 346.663 533.14 346.818C533.268 346.973 533.319 347.177 533.283 347.372L524.932 391.23C524.874 391.546 524.598 391.777 524.272 391.777ZM478.84 390.43H523.719L531.815 347.916H486.935L478.84 390.43Z" fill="#1F1F1F"/>
<path d="M202.856 440.797H156.612C156.411 440.797 156.223 440.709 156.095 440.554C155.967 440.399 155.916 440.195 155.952 440L164.303 396.142C164.364 395.826 164.64 395.595 164.963 395.595H211.21C211.411 395.595 211.599 395.683 211.727 395.838C211.855 395.993 211.906 396.197 211.87 396.392L203.519 440.25C203.458 440.569 203.181 440.797 202.856 440.797ZM157.423 439.453H202.303L210.398 396.939H165.519L157.423 439.453Z" fill="#1F1F1F"/>
<path d="M208.638 440.125L216.989 396.267H263.237L254.886 440.125H208.638Z" fill="#F1F1F1"/>
<path d="M306.912 440.797H260.665C260.464 440.797 260.276 440.709 260.148 440.554C260.02 440.399 259.969 440.195 260.005 440L268.356 396.142C268.417 395.826 268.693 395.595 269.016 395.595H315.263C315.464 395.595 315.652 395.683 315.78 395.838C315.908 395.993 315.959 396.197 315.923 396.392L307.572 440.25C307.514 440.569 307.235 440.797 306.912 440.797ZM261.48 439.453H306.359L314.455 396.939H269.572L261.48 439.453Z" fill="#1F1F1F"/>
<path d="M358.942 440.797H312.694C312.494 440.797 312.305 440.709 312.178 440.554C312.05 440.399 311.998 440.195 312.035 440L320.386 396.142C320.446 395.826 320.723 395.595 321.045 395.595H367.293C367.493 395.595 367.682 395.683 367.81 395.838C367.937 395.993 367.989 396.197 367.952 396.392L359.602 440.25C359.541 440.569 359.264 440.797 358.942 440.797ZM313.506 439.453H358.386L366.481 396.939H321.602L313.506 439.453Z" fill="#1F1F1F"/>
<path d="M410.968 440.797H364.721C364.52 440.797 364.332 440.709 364.204 440.554C364.076 440.399 364.025 440.195 364.061 440L372.412 396.142C372.473 395.826 372.75 395.595 373.072 395.595H419.319C419.52 395.595 419.708 395.683 419.836 395.838C419.964 395.993 420.016 396.197 419.979 396.392L411.628 440.25C411.567 440.569 411.291 440.797 410.968 440.797ZM365.533 439.453H410.412L418.508 396.939H373.628L365.533 439.453Z" fill="#1F1F1F"/>
<path d="M462.995 440.797H416.747C416.547 440.797 416.358 440.709 416.231 440.554C416.103 440.399 416.051 440.195 416.088 440L424.439 396.142C424.499 395.826 424.776 395.595 425.098 395.595H471.346C471.547 395.595 471.735 395.683 471.863 395.838C471.99 395.993 472.042 396.197 472.006 396.392L463.655 440.25C463.597 440.569 463.32 440.797 462.995 440.797ZM417.562 439.453H462.442L470.537 396.939H425.658L417.562 439.453Z" fill="#1F1F1F"/>
<path d="M515.025 440.797H468.777C468.576 440.797 468.388 440.709 468.26 440.554C468.133 440.399 468.081 440.195 468.117 440L476.468 396.142C476.529 395.826 476.806 395.595 477.128 395.595H523.375C523.576 395.595 523.765 395.683 523.892 395.838C524.02 395.993 524.072 396.197 524.035 396.392L515.684 440.25C515.623 440.569 515.347 440.797 515.025 440.797ZM469.589 439.453H514.468L522.564 396.939H477.684L469.589 439.453Z" fill="#1F1F1F"/>
<path d="M230.605 293.731H184.358C184.157 293.731 183.969 293.643 183.841 293.488C183.713 293.333 183.662 293.129 183.698 292.934L192.049 249.076C192.11 248.76 192.386 248.529 192.709 248.529H238.956C239.157 248.529 239.345 248.617 239.473 248.772C239.601 248.927 239.652 249.131 239.616 249.326L231.265 293.184C231.204 293.503 230.928 293.731 230.605 293.731ZM185.169 292.387H230.049L238.144 249.873H193.265L185.169 292.387Z" fill="#1F1F1F"/>
<path d="M282.656 293.685H236.409C236.208 293.685 236.02 293.597 235.892 293.442C235.764 293.287 235.712 293.083 235.749 292.889L244.1 249.031C244.161 248.715 244.437 248.484 244.76 248.484H291.007C291.208 248.484 291.396 248.572 291.524 248.727C291.652 248.882 291.703 249.085 291.667 249.28L283.316 293.138C283.255 293.457 282.978 293.685 282.656 293.685ZM237.22 292.342H282.1L290.195 249.827H245.316L237.22 292.342Z" fill="#1F1F1F"/>
<path d="M334.661 293.731H288.414C288.213 293.731 288.025 293.643 287.897 293.488C287.769 293.333 287.718 293.129 287.754 292.934L296.105 249.076C296.166 248.76 296.443 248.529 296.765 248.529H343.012C343.213 248.529 343.401 248.617 343.529 248.772C343.657 248.927 343.708 249.131 343.672 249.326L335.321 293.184C335.26 293.503 334.984 293.731 334.661 293.731ZM289.226 292.387H334.105L342.201 249.873H297.321L289.226 292.387Z" fill="#1F1F1F"/>
<path d="M386.688 293.731H340.44C340.24 293.731 340.051 293.643 339.924 293.488C339.796 293.333 339.744 293.129 339.781 292.934L348.132 249.076C348.192 248.76 348.469 248.529 348.791 248.529H395.039C395.24 248.529 395.428 248.617 395.556 248.772C395.683 248.927 395.735 249.131 395.699 249.326L387.348 293.184C387.29 293.503 387.01 293.731 386.688 293.731ZM341.255 292.387H386.135L394.23 249.873H349.351L341.255 292.387Z" fill="#1F1F1F"/>
<path d="M438.718 293.731H392.47C392.269 293.731 392.081 293.643 391.953 293.488C391.826 293.333 391.774 293.129 391.81 292.934L400.161 249.076C400.222 248.76 400.499 248.529 400.821 248.529H447.068C447.269 248.529 447.458 248.617 447.585 248.772C447.713 248.927 447.765 249.131 447.728 249.326L439.377 293.184C439.316 293.503 439.04 293.731 438.718 293.731ZM393.282 292.387H438.161L446.257 249.873H401.377L393.282 292.387Z" fill="#1F1F1F"/>
<path d="M490.744 293.731H444.497C444.296 293.731 444.108 293.643 443.98 293.488C443.852 293.333 443.801 293.129 443.837 292.934L452.188 249.076C452.249 248.76 452.525 248.529 452.848 248.529H499.095C499.296 248.529 499.484 248.617 499.612 248.772C499.74 248.927 499.791 249.131 499.755 249.326L491.404 293.184C491.346 293.503 491.066 293.731 490.744 293.731ZM445.311 292.387H490.191L498.286 249.873H453.407L445.311 292.387Z" fill="#1F1F1F"/>
<path d="M542.774 293.731H496.526C496.326 293.731 496.137 293.643 496.009 293.488C495.882 293.333 495.83 293.129 495.867 292.934L504.217 249.076C504.278 248.76 504.555 248.529 504.877 248.529H551.125C551.325 248.529 551.514 248.617 551.641 248.772C551.769 248.927 551.821 249.131 551.784 249.326L543.433 293.184C543.373 293.503 543.096 293.731 542.774 293.731ZM497.338 292.387H542.217L550.313 249.873H505.433L497.338 292.387Z" fill="#1F1F1F"/>
<path d="M221.358 342.754H175.11C174.909 342.754 174.721 342.666 174.593 342.511C174.466 342.356 174.414 342.152 174.45 341.957L182.801 298.099C182.862 297.783 183.139 297.552 183.461 297.552H229.708C229.909 297.552 230.098 297.64 230.225 297.795C230.353 297.95 230.405 298.154 230.368 298.349L222.017 342.207C221.956 342.526 221.68 342.754 221.358 342.754ZM175.922 341.41H220.801L228.897 298.896H184.017L175.922 341.41Z" fill="#1F1F1F"/>
<path d="M273.384 342.754H227.137C226.936 342.754 226.748 342.666 226.62 342.511C226.492 342.356 226.44 342.152 226.477 341.957L234.828 298.099C234.889 297.783 235.165 297.552 235.488 297.552H281.735C281.936 297.552 282.124 297.64 282.252 297.795C282.38 297.95 282.431 298.154 282.395 298.349L274.044 342.207C273.983 342.526 273.706 342.754 273.384 342.754ZM227.948 341.41H272.828L280.923 298.896H236.044L227.948 341.41Z" fill="#1F1F1F"/>
<path d="M325.411 342.754H279.166C278.966 342.754 278.777 342.666 278.649 342.511C278.522 342.356 278.47 342.152 278.507 341.957L286.857 298.099C286.918 297.783 287.195 297.552 287.517 297.552H333.765C333.965 297.552 334.154 297.64 334.281 297.795C334.409 297.95 334.461 298.154 334.424 298.349L326.073 342.207C326.013 342.526 325.733 342.754 325.411 342.754ZM279.978 341.41H324.857L332.953 298.896H288.07L279.978 341.41Z" fill="#1F1F1F"/>
<path d="M377.44 342.754H331.193C330.992 342.754 330.804 342.666 330.676 342.511C330.548 342.356 330.497 342.152 330.533 341.957L338.884 298.099C338.945 297.783 339.221 297.552 339.544 297.552H385.791C385.992 297.552 386.18 297.64 386.308 297.795C386.436 297.95 386.487 298.154 386.451 298.349L378.1 342.207C378.039 342.526 377.763 342.754 377.44 342.754ZM332.004 341.41H376.884L384.979 298.896H340.1L332.004 341.41Z" fill="#1F1F1F"/>
<path d="M429.467 342.754H383.219C383.019 342.754 382.83 342.666 382.703 342.511C382.575 342.356 382.523 342.152 382.56 341.957L390.911 298.099C390.971 297.783 391.248 297.552 391.57 297.552H437.818C438.018 297.552 438.207 297.64 438.335 297.795C438.462 297.95 438.514 298.154 438.477 298.349L430.127 342.207C430.069 342.526 429.789 342.754 429.467 342.754ZM384.034 341.41H428.914L437.009 298.896H392.13L384.034 341.41Z" fill="#1F1F1F"/>
<path d="M532.906 342.754H486.658C486.458 342.754 486.269 342.666 486.142 342.511C486.014 342.356 485.962 342.152 485.999 341.957L494.35 298.099C494.41 297.783 494.687 297.552 495.009 297.552H541.257C541.457 297.552 541.646 297.64 541.774 297.795C541.901 297.95 541.953 298.154 541.916 298.349L533.566 342.207C533.508 342.526 533.228 342.754 532.906 342.754ZM487.473 341.41H532.353L540.448 298.896H495.569L487.473 341.41Z" fill="#1F1F1F"/>
<path d="M481.496 342.754H435.249C435.048 342.754 434.86 342.666 434.732 342.511C434.604 342.356 434.553 342.152 434.589 341.957L442.94 298.099C443.001 297.783 443.278 297.552 443.6 297.552H489.847C490.048 297.552 490.236 297.64 490.364 297.795C490.492 297.95 490.544 298.154 490.507 298.349L482.156 342.207C482.095 342.526 481.819 342.754 481.496 342.754ZM436.061 341.41H480.94L489.036 298.896H444.156L436.061 341.41Z" fill="#1F1F1F"/>
<path d="M267.128 137.013C266.757 137.013 266.456 136.712 266.456 136.341C266.456 128.884 264.039 121.84 259.464 115.973C259.236 115.681 259.288 115.259 259.579 115.031C259.871 114.803 260.294 114.854 260.522 115.146C265.283 121.25 267.797 128.58 267.797 136.341C267.8 136.712 267.499 137.013 267.128 137.013Z" fill="#1F1F1F"/>
<path d="M233.299 170.845C214.274 170.845 198.798 155.368 198.798 136.344C198.798 117.32 214.274 101.843 233.299 101.843C240.507 101.843 247.41 104.044 253.265 108.206C253.566 108.422 253.639 108.841 253.424 109.142C253.208 109.443 252.788 109.516 252.487 109.3C246.86 105.3 240.227 103.187 233.299 103.187C215.016 103.187 200.141 118.061 200.141 136.344C200.141 154.627 215.016 169.501 233.299 169.501C233.67 169.501 233.971 169.802 233.971 170.173C233.971 170.544 233.67 170.845 233.299 170.845Z" fill="#1F1F1F"/>
<path d="M312.451 137.013C312.08 137.013 311.779 136.712 311.779 136.341C311.779 128.701 309.256 121.524 304.477 115.584C304.243 115.295 304.292 114.872 304.581 114.638C304.869 114.407 305.292 114.453 305.526 114.742C310.427 120.837 313.123 128.507 313.123 136.341C313.123 136.712 312.822 137.013 312.451 137.013Z" fill="#1F1F1F"/>
<path d="M278.622 170.845C259.598 170.845 244.121 155.368 244.121 136.344C244.121 117.32 259.598 101.843 278.622 101.843C285.429 101.843 292.013 103.822 297.665 107.57C297.975 107.774 298.06 108.194 297.853 108.501C297.649 108.811 297.23 108.896 296.923 108.689C291.493 105.09 285.167 103.187 278.622 103.187C260.34 103.187 245.465 118.061 245.465 136.344C245.465 154.627 260.34 169.501 278.622 169.501C278.993 169.501 279.294 169.802 279.294 170.173C279.294 170.544 278.993 170.845 278.622 170.845Z" fill="#1F1F1F"/>
<path d="M357.772 137.013C357.401 137.013 357.1 136.712 357.1 136.341C357.1 128.683 354.428 121.211 349.576 115.307C349.339 115.021 349.381 114.596 349.667 114.362C349.953 114.128 350.378 114.167 350.612 114.453C355.662 120.6 358.443 128.373 358.443 136.341C358.443 136.712 358.142 137.013 357.772 137.013Z" fill="#1F1F1F"/>
<path d="M323.942 170.845C304.918 170.845 289.441 155.368 289.441 136.344C289.441 117.32 304.918 101.843 323.942 101.843C331.038 101.843 337.85 103.98 343.651 108.023C343.955 108.236 344.031 108.656 343.818 108.96C343.605 109.264 343.189 109.34 342.882 109.127C337.309 105.242 330.761 103.19 323.942 103.19C305.66 103.19 290.785 118.064 290.785 136.347C290.785 154.63 305.66 169.504 323.942 169.504C324.313 169.504 324.614 169.805 324.614 170.176C324.614 170.544 324.313 170.845 323.942 170.845Z" fill="#1F1F1F"/>
<path d="M403.095 137.013C402.724 137.013 402.423 136.712 402.423 136.341C402.423 128.577 399.684 121.025 394.707 115.079C394.47 114.793 394.507 114.371 394.793 114.134C395.075 113.897 395.501 113.933 395.738 114.219C400.915 120.405 403.764 128.264 403.764 136.344C403.767 136.712 403.466 137.013 403.095 137.013Z" fill="#1F1F1F"/>
<path d="M369.263 170.845C350.238 170.845 334.762 155.368 334.762 136.344C334.762 117.32 350.238 101.843 369.263 101.843C376.176 101.843 382.845 103.88 388.551 107.735C388.859 107.941 388.941 108.361 388.731 108.668C388.524 108.975 388.105 109.057 387.798 108.847C382.313 105.144 375.905 103.187 369.26 103.187C350.977 103.187 336.102 118.061 336.102 136.344C336.102 154.627 350.977 169.501 369.26 169.501C369.631 169.501 369.931 169.802 369.931 170.173C369.935 170.544 369.634 170.845 369.263 170.845Z" fill="#1F1F1F"/>
<path d="M448.415 137.013C448.044 137.013 447.743 136.712 447.743 136.341C447.743 128.774 445.263 121.649 440.566 115.739C440.335 115.447 440.383 115.024 440.675 114.793C440.967 114.562 441.387 114.611 441.621 114.903C446.506 121.056 449.09 128.47 449.09 136.341C449.087 136.712 448.786 137.013 448.415 137.013Z" fill="#1F1F1F"/>
<path d="M414.586 170.845C395.562 170.845 380.085 155.368 380.085 136.344C380.085 117.32 395.562 101.843 414.586 101.843C421.472 101.843 428.12 103.865 433.811 107.692C434.118 107.899 434.2 108.315 433.993 108.625C433.787 108.932 433.367 109.014 433.06 108.808C427.591 105.129 421.201 103.187 414.583 103.187C396.3 103.187 381.426 118.061 381.426 136.344C381.426 154.627 396.3 169.501 414.583 169.501C414.954 169.501 415.255 169.802 415.255 170.173C415.258 170.544 414.957 170.845 414.586 170.845Z" fill="#1F1F1F"/>
<path d="M493.739 137.013C493.368 137.013 493.067 136.712 493.067 136.341C493.067 128.814 490.61 121.722 485.959 115.824C485.728 115.532 485.78 115.11 486.072 114.882C486.364 114.651 486.786 114.702 487.014 114.994C491.854 121.129 494.41 128.51 494.41 136.341C494.41 136.712 494.109 137.013 493.739 137.013Z" fill="#1F1F1F"/>
<path d="M459.906 170.845C440.882 170.845 425.405 155.368 425.405 136.344C425.405 117.32 440.882 101.843 459.906 101.843C466.634 101.843 473.152 103.78 478.76 107.446C479.071 107.649 479.159 108.066 478.955 108.376C478.751 108.686 478.335 108.774 478.025 108.571C472.638 105.05 466.372 103.187 459.906 103.187C441.624 103.187 426.749 118.061 426.749 136.344C426.749 154.627 441.624 169.501 459.906 169.501C460.277 169.501 460.578 169.802 460.578 170.173C460.578 170.544 460.277 170.845 459.906 170.845Z" fill="#1F1F1F"/>
<path d="M539.059 137.013C538.688 137.013 538.387 136.712 538.387 136.341C538.387 128.726 535.742 121.29 530.939 115.398C530.705 115.11 530.747 114.687 531.036 114.453C531.325 114.219 531.748 114.261 531.982 114.55C536.979 120.679 539.734 128.419 539.734 136.341C539.731 136.712 539.43 137.013 539.059 137.013Z" fill="#1F1F1F"/>
<path d="M505.23 170.845C486.205 170.845 470.729 155.368 470.729 136.344C470.729 117.32 486.205 101.843 505.23 101.843C511.93 101.843 518.423 103.764 524.017 107.4C524.327 107.604 524.415 108.02 524.215 108.33C524.011 108.64 523.594 108.729 523.284 108.528C517.913 105.035 511.669 103.187 505.233 103.187C486.95 103.187 472.076 118.061 472.076 136.344C472.076 154.627 486.95 169.501 505.233 169.501C505.604 169.501 505.905 169.802 505.905 170.173C505.902 170.544 505.601 170.845 505.23 170.845Z" fill="#1F1F1F"/>
<path d="M550.55 170.845C531.526 170.845 516.049 155.368 516.049 136.344C516.049 117.32 531.526 101.843 550.55 101.843C569.574 101.843 585.051 117.32 585.051 136.344C585.051 136.715 584.75 137.016 584.379 137.016C584.008 137.016 583.707 136.715 583.707 136.344C583.707 118.061 568.833 103.187 550.55 103.187C532.268 103.187 517.393 118.061 517.393 136.344C517.393 154.627 532.268 169.501 550.55 169.501C550.921 169.501 551.222 169.802 551.222 170.173C551.222 170.544 550.921 170.845 550.55 170.845Z" fill="#1F1F1F"/>
<path d="M233.952 177.025C232.013 177.025 230.146 176.204 228.833 174.776C228.581 174.502 228.599 174.076 228.872 173.827C229.146 173.575 229.572 173.596 229.821 173.867C230.879 175.022 232.387 175.682 233.949 175.682C237.041 175.682 239.555 173.168 239.555 170.076C239.555 166.984 237.041 164.47 233.949 164.47C232.168 164.47 230.475 165.33 229.423 166.771C229.204 167.072 228.784 167.136 228.483 166.917C228.182 166.698 228.119 166.279 228.337 165.978C229.642 164.193 231.742 163.126 233.949 163.126C237.78 163.126 240.899 166.242 240.899 170.076C240.899 173.909 237.783 177.025 233.952 177.025Z" fill="#1F1F1F"/>
<path d="M278.491 177.025C276.552 177.025 274.685 176.204 273.372 174.776C273.12 174.502 273.138 174.076 273.412 173.827C273.685 173.575 274.111 173.596 274.36 173.867C275.418 175.022 276.926 175.682 278.488 175.682C281.577 175.682 284.094 173.168 284.094 170.076C284.094 166.984 281.58 164.47 278.488 164.47C276.707 164.47 275.014 165.33 273.962 166.771C273.743 167.072 273.323 167.136 273.022 166.917C272.721 166.698 272.658 166.279 272.876 165.978C274.184 164.193 276.281 163.126 278.488 163.126C282.319 163.126 285.438 166.242 285.438 170.076C285.438 173.909 282.322 177.025 278.491 177.025Z" fill="#1F1F1F"/>
<path d="M323.03 177.025C321.091 177.025 319.224 176.204 317.911 174.776C317.659 174.502 317.677 174.076 317.951 173.827C318.224 173.575 318.65 173.596 318.899 173.867C319.957 175.022 321.465 175.682 323.027 175.682C326.116 175.682 328.633 173.168 328.633 170.076C328.633 166.984 326.119 164.47 323.027 164.47C321.246 164.47 319.553 165.33 318.501 166.771C318.282 167.072 317.862 167.136 317.561 166.917C317.26 166.698 317.197 166.279 317.416 165.978C318.723 164.193 320.82 163.126 323.027 163.126C326.858 163.126 329.977 166.242 329.977 170.076C329.977 173.909 326.861 177.025 323.03 177.025Z" fill="#1F1F1F"/>
<path d="M368.846 177.025C366.907 177.025 365.04 176.204 363.727 174.776C363.475 174.502 363.493 174.076 363.766 173.827C364.04 173.575 364.466 173.596 364.715 173.867C365.773 175.022 367.281 175.682 368.843 175.682C371.935 175.682 374.449 173.168 374.449 170.076C374.449 166.984 371.935 164.47 368.843 164.47C367.062 164.47 365.369 165.33 364.317 166.771C364.098 167.069 363.678 167.136 363.377 166.917C363.076 166.698 363.012 166.279 363.231 165.978C364.536 164.193 366.633 163.126 368.843 163.126C372.674 163.126 375.793 166.242 375.793 170.076C375.793 173.909 372.677 177.025 368.846 177.025Z" fill="#1F1F1F"/>
<path d="M413.856 177.025C411.917 177.025 410.05 176.204 408.737 174.776C408.485 174.502 408.503 174.076 408.777 173.827C409.05 173.575 409.476 173.596 409.725 173.867C410.783 175.022 412.291 175.682 413.853 175.682C416.942 175.682 419.459 173.168 419.459 170.076C419.459 166.984 416.945 164.47 413.853 164.47C412.072 164.47 410.379 165.33 409.327 166.771C409.108 167.072 408.688 167.136 408.388 166.917C408.087 166.698 408.023 166.279 408.242 165.978C409.549 164.193 411.646 163.126 413.853 163.126C417.684 163.126 420.803 166.242 420.803 170.076C420.803 173.909 417.687 177.025 413.856 177.025Z" fill="#1F1F1F"/>
<path d="M461.016 177.025C459.076 177.025 457.21 176.204 455.897 174.776C455.644 174.502 455.663 174.076 455.936 173.827C456.21 173.575 456.635 173.596 456.885 173.867C457.943 175.022 459.45 175.682 461.013 175.682C464.105 175.682 466.619 173.168 466.619 170.076C466.619 166.984 464.105 164.47 461.013 164.47C459.231 164.47 457.538 165.33 456.486 166.771C456.267 167.069 455.848 167.136 455.547 166.917C455.246 166.698 455.182 166.279 455.401 165.978C456.705 164.193 458.803 163.126 461.013 163.126C464.843 163.126 467.962 166.242 467.962 170.076C467.965 173.909 464.846 177.025 461.016 177.025Z" fill="#1F1F1F"/>
<path d="M505.555 177.025C503.616 177.025 501.749 176.204 500.436 174.776C500.183 174.502 500.202 174.076 500.475 173.827C500.749 173.575 501.174 173.596 501.424 173.867C502.482 175.022 503.989 175.682 505.552 175.682C508.644 175.682 511.158 173.168 511.158 170.076C511.158 166.984 508.644 164.47 505.552 164.47C503.771 164.47 502.077 165.33 501.025 166.771C500.807 167.069 500.387 167.136 500.086 166.917C499.785 166.698 499.721 166.279 499.94 165.978C501.244 164.193 503.342 163.126 505.552 163.126C509.382 163.126 512.501 166.242 512.501 170.076C512.504 173.909 509.385 177.025 505.555 177.025Z" fill="#1F1F1F"/>
<path d="M550.094 177.025C548.155 177.025 546.288 176.204 544.975 174.776C544.722 174.502 544.741 174.076 545.014 173.827C545.288 173.575 545.713 173.596 545.963 173.867C547.021 175.022 548.529 175.682 550.091 175.682C553.18 175.682 555.697 173.168 555.697 170.076C555.697 166.984 553.183 164.47 550.091 164.47C548.31 164.47 546.616 165.33 545.564 166.771C545.346 167.069 544.926 167.136 544.625 166.917C544.324 166.698 544.26 166.279 544.479 165.978C545.783 164.193 547.881 163.126 550.091 163.126C553.921 163.126 557.04 166.242 557.04 170.076C557.044 173.909 553.925 177.025 550.094 177.025Z" fill="#1F1F1F"/>
<path d="M461.688 331.251C461.548 331.251 461.408 331.238 461.268 331.211C460.466 331.059 459.833 330.506 459.578 329.731L454.562 316.649C454.428 316.303 454.602 315.914 454.948 315.78C455.295 315.646 455.684 315.82 455.818 316.166L460.843 329.278C460.952 329.612 461.201 329.828 461.515 329.889C461.816 329.946 462.113 329.843 462.317 329.618L476.176 307.496C476.374 307.183 476.788 307.086 477.104 307.283C477.42 307.481 477.514 307.894 477.316 308.21L463.433 330.375C463.418 330.399 463.399 330.424 463.381 330.445C462.953 330.965 462.341 331.251 461.688 331.251Z" fill="#1F1F1F"/>
<path d="M390.984 429.57C390.847 429.57 390.71 429.558 390.573 429.531C389.786 429.382 389.166 428.841 388.916 428.078L383.973 415.182C383.84 414.835 384.013 414.446 384.359 414.312C384.703 414.182 385.095 414.352 385.229 414.699L390.184 427.625C390.29 427.944 390.524 428.151 390.822 428.205C391.108 428.26 391.391 428.163 391.582 427.95L405.053 406.448C405.25 406.132 405.664 406.038 405.98 406.235C406.296 406.433 406.39 406.846 406.193 407.162L392.698 428.704C392.683 428.728 392.665 428.752 392.646 428.774C392.224 429.291 391.622 429.57 390.984 429.57Z" fill="#1F1F1F"/>
<path d="M365.575 282.714C365.435 282.714 365.292 282.702 365.15 282.674C364.338 282.522 363.703 281.963 363.444 281.182L358.319 267.812C358.185 267.465 358.358 267.076 358.705 266.942C359.051 266.812 359.44 266.982 359.571 267.328L364.709 280.732C364.821 281.072 365.074 281.294 365.396 281.355C365.706 281.413 366.007 281.309 366.217 281.075L380.249 258.677C380.447 258.364 380.86 258.266 381.176 258.464C381.493 258.661 381.587 259.075 381.389 259.391L367.329 281.832C367.314 281.857 367.296 281.881 367.278 281.902C366.849 282.425 366.232 282.714 365.575 282.714Z" fill="#1F1F1F"/>
<path d="M342.158 584.881C348.214 565.495 348.788 533.863 342.158 514.131L346.919 507.267L527.543 512.583L523.056 586.328L346.6 587.243L342.158 584.881Z" fill="#F1F1F1"/>
<path d="M346.6 587.915C346.49 587.915 346.381 587.887 346.283 587.836L341.842 585.477C341.556 585.325 341.419 584.99 341.517 584.683C347.797 564.577 347.797 533.024 341.523 514.347C341.456 514.146 341.486 513.924 341.608 513.751L346.368 506.887C346.499 506.701 346.706 506.589 346.94 506.598L527.565 511.915C527.747 511.921 527.917 512 528.042 512.134C528.164 512.267 528.227 512.447 528.215 512.629L523.728 586.373C523.707 586.726 523.415 587.003 523.062 587.006L346.606 587.921C346.6 587.915 346.6 587.915 346.6 587.915ZM342.964 584.549L346.764 586.568L522.424 585.656L526.832 513.231L347.265 507.944L342.906 514.234C349.095 533.015 349.117 564.309 342.964 584.549Z" fill="#1F1F1F"/>
<path d="M608.438 503.543H436.863H339.741C336.917 503.543 334.628 504.415 334.628 508.811C334.628 513.207 336.917 514.079 339.741 514.079H506.002C514.137 514.079 520.731 521.649 520.731 534.304V564.659C520.731 577.314 514.137 584.212 506.002 584.212H339.741C336.917 584.212 334.628 584.413 334.628 588.809C334.628 593.201 336.917 594.077 339.741 594.077H608.438C623.437 594.077 635.594 575.162 635.594 551.827V545.796C635.594 522.457 623.437 503.543 608.438 503.543Z" fill="#F1F1F1"/>
<path d="M608.438 594.746H339.741C337.258 594.746 333.956 594.129 333.956 588.805C333.956 583.537 337.3 583.537 339.741 583.537H506.002C514.411 583.537 520.059 575.949 520.059 564.656V534.301C520.059 522.789 514.28 514.748 506.002 514.748H339.741C337.258 514.748 333.956 514.131 333.956 508.808C333.956 503.485 337.258 502.868 339.741 502.868H608.438C623.784 502.868 636.266 522.123 636.266 545.789V551.821C636.266 575.49 623.784 594.746 608.438 594.746ZM339.741 584.881C336.905 584.881 335.3 585.063 335.3 588.805C335.3 592.621 337.075 593.402 339.741 593.402H608.438C623.042 593.402 634.922 574.752 634.922 551.827V545.796C634.922 522.871 623.042 504.221 608.438 504.221H339.741C337.075 504.221 335.3 505.002 335.3 508.817C335.3 512.632 337.075 513.413 339.741 513.413H506.002C515.07 513.413 521.403 522.008 521.403 534.31V564.665C521.403 578.637 513.669 584.89 506.002 584.89H339.741V584.881Z" fill="#1F1F1F"/>
<path d="M608.438 594.746H339.741C337.258 594.746 333.956 594.128 333.956 588.805C333.956 583.537 337.3 583.537 339.741 583.537H506.002C514.411 583.537 520.059 575.949 520.059 564.656V534.301C520.059 522.789 514.28 514.748 506.002 514.748H450.197C449.826 514.748 449.525 514.447 449.525 514.076C449.525 513.705 449.826 513.404 450.197 513.404H506.002C515.07 513.404 521.403 521.998 521.403 534.301V564.656C521.403 578.627 513.669 584.881 506.002 584.881H339.741C336.905 584.881 335.3 585.063 335.3 588.805C335.3 592.621 337.075 593.402 339.741 593.402H608.438C623.042 593.402 634.922 574.751 634.922 551.827V545.795C634.922 522.871 623.042 504.22 608.438 504.22H451.534C451.163 504.22 450.862 503.919 450.862 503.549C450.862 503.178 451.163 502.877 451.534 502.877H608.438C623.784 502.877 636.266 522.132 636.266 545.798V551.83C636.266 575.49 623.784 594.746 608.438 594.746Z" fill="#1F1F1F"/>
<path d="M450.197 514.748H339.741C337.258 514.748 333.956 514.131 333.956 508.808C333.956 503.485 337.258 502.868 339.741 502.868H451.534C451.905 502.868 452.206 503.169 452.206 503.54C452.206 503.91 451.905 504.211 451.534 504.211H339.741C337.075 504.211 335.3 504.993 335.3 508.808C335.3 512.623 337.075 513.404 339.741 513.404H450.197C450.568 513.404 450.868 513.705 450.868 514.076C450.868 514.447 450.568 514.748 450.197 514.748Z" fill="#1F1F1F"/>
<path d="M462.49 537.186H445.229C444.858 537.186 444.557 536.885 444.557 536.514C444.557 536.144 444.858 535.843 445.229 535.843H462.49C462.861 535.843 463.162 536.144 463.162 536.514C463.162 536.885 462.861 537.186 462.49 537.186Z" fill="#1F1F1F"/>
<path d="M429.464 537.186H354.713C354.342 537.186 354.041 536.885 354.041 536.514C354.041 536.144 354.342 535.843 354.713 535.843H429.464C429.835 535.843 430.136 536.144 430.136 536.514C430.136 536.885 429.835 537.186 429.464 537.186Z" fill="#1F1F1F"/>
<path d="M439.152 546.771H355.178C354.808 546.771 354.507 546.47 354.507 546.1C354.507 545.729 354.808 545.428 355.178 545.428H439.152C439.523 545.428 439.824 545.729 439.824 546.1C439.824 546.47 439.523 546.771 439.152 546.771Z" fill="#1F1F1F"/>
<path d="M462.673 563.95H451.844C451.473 563.95 451.172 563.649 451.172 563.279C451.172 562.908 451.473 562.607 451.844 562.607H462.673C463.044 562.607 463.345 562.908 463.345 563.279C463.345 563.649 463.044 563.95 462.673 563.95Z" fill="#F1F1F1"/>
<path d="M438.69 563.95H354.716C354.345 563.95 354.044 563.649 354.044 563.279C354.044 562.908 354.345 562.607 354.716 562.607H438.69C439.061 562.607 439.362 562.908 439.362 563.279C439.362 563.649 439.061 563.95 438.69 563.95Z" fill="#1F1F1F"/>
<path d="M351.682 651.518H605.617V599.85H351.682C358.349 617.299 358.535 634.53 351.682 651.518Z" fill="#F1F1F1"/>
<path d="M605.614 652.19H351.679C351.454 652.19 351.248 652.08 351.123 651.895C350.998 651.709 350.974 651.475 351.056 651.268C357.72 634.752 357.717 617.533 351.05 600.09C350.971 599.883 350.998 599.652 351.123 599.47C351.248 599.287 351.454 599.178 351.676 599.178H605.611C605.981 599.178 606.282 599.479 606.282 599.85V651.518C606.285 651.889 605.984 652.19 605.614 652.19ZM352.67 650.846H604.942V600.522H352.649C358.978 617.655 358.984 634.576 352.67 650.846Z" fill="#1F1F1F"/>
<path d="M578.418 602.397H350.126C347.718 602.397 345.767 600.573 345.767 598.327C345.767 596.077 347.718 594.256 350.126 594.256H638.029C648.614 594.256 657.193 602.267 657.193 612.147V640.27C657.193 650.15 648.614 658.16 638.029 658.16H350.126C347.718 658.16 345.767 656.336 345.767 654.09C345.767 651.843 347.718 650.019 350.126 650.019H578.418C585.896 650.019 591.955 644.361 591.955 637.379V615.035C591.958 608.055 585.896 602.397 578.418 602.397Z" fill="#1F1F1F"/>
<path d="M421.377 612.788H366.718C366.347 612.788 366.046 612.487 366.046 612.116C366.046 611.745 366.347 611.444 366.718 611.444H421.377C421.748 611.444 422.049 611.745 422.049 612.116C422.049 612.487 421.748 612.788 421.377 612.788Z" fill="#1F1F1F"/>
<path d="M562.43 612.788H501.792C501.421 612.788 501.12 612.487 501.12 612.116C501.12 611.745 501.421 611.444 501.792 611.444H562.43C562.801 611.444 563.102 611.745 563.102 612.116C563.102 612.487 562.801 612.788 562.43 612.788Z" fill="#1F1F1F"/>
<path d="M426.041 623.717H367.42C367.05 623.717 366.749 623.416 366.749 623.045C366.749 622.674 367.05 622.373 367.42 622.373H426.041C426.412 622.373 426.713 622.674 426.713 623.045C426.713 623.416 426.412 623.717 426.041 623.717Z" fill="#1F1F1F"/>
<path d="M571.432 623.717H496.146C495.775 623.717 495.474 623.416 495.474 623.045C495.474 622.674 495.775 622.373 496.146 622.373H571.432C571.803 622.373 572.104 622.674 572.104 623.045C572.104 623.416 571.803 623.717 571.432 623.717Z" fill="#1F1F1F"/>
<path d="M477.119 638.783H367.42C367.05 638.783 366.749 638.482 366.749 638.111C366.749 637.74 367.05 637.439 367.42 637.439H477.119C477.49 637.439 477.791 637.74 477.791 638.111C477.791 638.482 477.49 638.783 477.119 638.783Z" fill="#1F1F1F"/>
<path d="M571.158 638.783H500.928C500.557 638.783 500.256 638.482 500.256 638.111C500.256 637.74 500.557 637.439 500.928 637.439H571.158C571.529 637.439 571.83 637.74 571.83 638.111C571.83 638.482 571.529 638.783 571.158 638.783Z" fill="#1F1F1F"/>
<path d="M467.318 591.143L462.317 609.487L450.841 608.474L453.319 589.255L467.318 591.143Z" fill="#F1F1F1"/>
<path d="M462.32 610.158C462.302 610.158 462.281 610.158 462.259 610.155L450.78 609.143C450.598 609.128 450.431 609.037 450.315 608.894C450.2 608.751 450.148 608.569 450.172 608.386L452.653 589.167C452.677 588.991 452.768 588.83 452.911 588.72C453.054 588.611 453.231 588.562 453.41 588.587L467.409 590.474C467.601 590.499 467.771 590.608 467.88 590.769C467.987 590.93 468.02 591.131 467.968 591.316L462.968 609.66C462.886 609.958 462.618 610.158 462.32 610.158ZM451.598 607.866L461.819 608.769L466.47 591.706L453.902 590.012L451.598 607.866Z" fill="#1F1F1F"/>
<path d="M461.554 630.45C453.124 634.445 431.209 644.112 414.084 645.404C410.43 645.681 408.156 642.17 409.008 638.604C412.619 623.464 449.832 597.98 449.832 597.98L455.21 599.792C457.097 600.427 458.022 602.555 457.198 604.37L456.085 606.82L464.707 606.088C466.67 605.921 468.379 607.428 468.44 609.398C468.543 612.742 468.288 618.184 466.394 624.738C465.67 627.249 463.916 629.332 461.554 630.45Z" fill="#F1F1F1"/>
<path d="M413.683 646.091C412.081 646.091 410.649 645.438 409.613 644.222C408.324 642.708 407.852 640.549 408.354 638.446C411.984 623.23 447.923 598.47 449.452 597.424C449.625 597.305 449.847 597.275 450.045 597.342L455.422 599.154C456.502 599.518 457.38 600.324 457.836 601.37C458.289 602.416 458.28 603.607 457.809 604.644L457.17 606.051L464.649 605.416C465.792 605.319 466.886 605.684 467.741 606.444C468.589 607.2 469.075 608.24 469.112 609.374C469.218 612.824 468.947 618.321 467.038 624.924C466.257 627.626 464.363 629.861 461.84 631.058C453.221 635.141 431.318 644.778 414.133 646.073C413.984 646.085 413.832 646.091 413.683 646.091ZM449.938 598.725C446.54 601.09 413.011 624.723 409.661 638.759C409.26 640.446 409.622 642.164 410.634 643.352C411.479 644.346 412.692 644.836 414.033 644.735C430.993 643.456 452.714 633.898 461.265 629.845C463.439 628.815 465.074 626.888 465.749 624.553C467.61 618.12 467.874 612.773 467.771 609.42C467.747 608.657 467.418 607.957 466.85 607.45C466.275 606.939 465.53 606.693 464.767 606.757L456.146 607.489C455.903 607.511 455.678 607.401 455.541 607.207C455.404 607.012 455.38 606.76 455.477 606.541L456.59 604.091C456.909 603.388 456.915 602.613 456.608 601.905C456.301 601.196 455.729 600.674 455 600.427L449.938 598.725Z" fill="#1F1F1F"/>
<path d="M414.641 640.014C414.316 640.014 414.027 639.777 413.978 639.443C413.923 639.075 414.176 638.734 414.54 638.677C437.757 635.156 459.423 624.048 459.639 623.939C459.97 623.768 460.375 623.896 460.545 624.228C460.715 624.556 460.587 624.963 460.256 625.134C460.037 625.246 438.183 636.454 414.741 640.008C414.708 640.011 414.674 640.014 414.641 640.014Z" fill="#1F1F1F"/>
<path d="M431.966 626.207C431.756 626.207 431.546 626.109 431.416 625.924L426.099 618.409C425.886 618.105 425.956 617.685 426.26 617.473C426.564 617.26 426.983 617.33 427.196 617.634L432.513 625.149C432.726 625.453 432.656 625.872 432.352 626.085C432.233 626.167 432.099 626.207 431.966 626.207Z" fill="#1F1F1F"/>
<path d="M442.141 622.121C441.931 622.121 441.721 622.024 441.59 621.838L434.912 612.396C434.699 612.092 434.769 611.672 435.073 611.46C435.377 611.247 435.796 611.317 436.009 611.621L442.688 621.063C442.901 621.367 442.831 621.786 442.527 621.999C442.411 622.081 442.274 622.121 442.141 622.121Z" fill="#1F1F1F"/>
<path d="M519.949 512.231C516.827 520.339 508.248 540.941 497.523 552.809C495.234 555.341 491.446 554.432 489.729 551.48C482.442 538.946 491.185 497.852 491.185 497.852L495.976 495.62C497.657 494.839 499.648 495.678 500.259 497.432L501.083 499.8L506.431 493.769C507.65 492.395 509.769 492.316 511.076 493.605C513.295 495.794 516.618 499.633 519.548 505.269C520.67 507.428 520.825 509.96 519.949 512.231Z" fill="#F1F1F1"/>
<path d="M494.292 554.958C494.112 554.958 493.93 554.949 493.745 554.931C491.887 554.736 490.17 553.575 489.151 551.818C481.819 539.205 490.17 499.399 490.531 497.712C490.574 497.505 490.714 497.332 490.905 497.244L495.696 495.012C496.669 494.559 497.794 494.538 498.785 494.958C499.773 495.377 500.545 496.198 500.898 497.21L501.345 498.496L505.929 493.322C506.643 492.517 507.631 492.051 508.708 492.015C509.787 491.978 510.787 492.374 511.55 493.124C513.839 495.383 517.189 499.271 520.144 504.959C521.36 507.297 521.518 510.036 520.579 512.474C517.384 520.767 508.793 541.345 498.025 553.262C497.022 554.368 495.712 554.958 494.292 554.958ZM491.775 498.317C490.975 502.217 483.576 539.557 490.309 551.143C491.115 552.529 492.45 553.444 493.881 553.593C495.076 553.718 496.192 553.28 497.025 552.359C507.644 540.609 516.156 520.214 519.323 511.991C520.123 509.911 519.989 507.574 518.952 505.579C516.076 500.047 512.827 496.274 510.604 494.082C510.109 493.593 509.458 493.334 508.753 493.359C508.048 493.383 507.403 493.687 506.935 494.213L501.588 500.244C501.43 500.424 501.187 500.506 500.956 500.457C500.721 500.411 500.53 500.244 500.451 500.019L499.627 497.651C499.396 496.985 498.91 496.468 498.262 496.192C497.612 495.918 496.903 495.93 496.265 496.228L491.775 498.317Z" fill="#1F1F1F"/>
<path d="M494.006 549.033C493.863 549.033 493.717 548.988 493.596 548.893C493.304 548.665 493.249 548.243 493.477 547.951C506.88 530.665 514.359 509.267 514.432 509.054C514.553 508.705 514.933 508.516 515.286 508.638C515.636 508.759 515.824 509.142 515.703 509.492C515.627 509.708 508.075 531.313 494.538 548.775C494.404 548.945 494.207 549.033 494.006 549.033Z" fill="#1F1F1F"/>
<path d="M496.827 528.592C496.785 528.592 496.742 528.589 496.696 528.58L488.285 526.923C487.92 526.85 487.683 526.498 487.756 526.133C487.829 525.768 488.178 525.534 488.546 525.604L496.958 527.261C497.323 527.334 497.56 527.686 497.487 528.051C497.423 528.37 497.143 528.592 496.827 528.592Z" fill="#1F1F1F"/>
<path d="M501.068 519.299C501.025 519.299 500.983 519.296 500.937 519.287L490.367 517.207C490.002 517.134 489.765 516.782 489.838 516.417C489.911 516.052 490.261 515.815 490.629 515.888L501.199 517.967C501.564 518.04 501.801 518.393 501.728 518.758C501.664 519.077 501.384 519.299 501.068 519.299Z" fill="#1F1F1F"/>
<path d="M560.88 438.091C560.017 437.182 498.451 410.585 473.288 404.928C448.123 399.271 437.562 398.574 430.184 413.598C420.955 432.397 471.431 506.455 471.431 506.455L577.399 478.833L560.88 438.091Z" fill="#1F1F1F"/>
<path d="M494.982 465.418C494.727 465.418 494.48 465.269 494.368 465.02C481.652 436.638 460.673 416.371 460.46 416.167C460.192 415.911 460.183 415.486 460.438 415.215C460.697 414.948 461.119 414.939 461.39 415.194C461.603 415.398 482.773 435.848 495.593 464.466C495.745 464.804 495.593 465.202 495.256 465.354C495.167 465.4 495.073 465.418 494.982 465.418Z" fill="#F1F1F1"/>
<path d="M615.345 464.421C615.345 464.421 620.236 477.316 604.86 492.52C585.592 511.571 495.259 501.579 495.259 501.579C495.259 501.579 494.657 517.253 492.486 528.516C486.479 559.688 483.439 561.208 469.2 596.81L450.346 593.861C450.346 593.861 450.811 488.355 464.667 472.072C478.523 455.79 565.79 454.896 565.79 454.896L615.345 464.421Z" fill="#1F1F1F"/>
<path d="M457.708 487.431C457.636 487.431 457.56 487.418 457.487 487.394C457.137 487.272 456.952 486.889 457.073 486.54C459.642 479.153 462.025 474.14 464.153 471.638C473.754 460.356 541.682 454.726 562.272 453.27C562.655 453.246 562.965 453.522 562.99 453.893C563.017 454.264 562.737 454.583 562.367 454.611C541.907 456.058 474.438 461.624 465.178 472.507C463.156 474.881 460.858 479.752 458.344 486.981C458.247 487.254 457.988 487.431 457.708 487.431Z" fill="#F1F1F1"/>
<path d="M568.073 432.881L541.181 391.336C540.71 390.61 539.913 390.16 539.047 390.132L515.073 389.415L499.852 377.386L495.459 381.812L522.464 416.927L543.114 433.334L568.073 432.881Z" fill="#F1F1F1"/>
<path d="M543.114 434.006C542.962 434.006 542.816 433.954 542.695 433.86L522.044 417.453C522.001 417.419 521.962 417.38 521.928 417.337L494.924 382.222C494.717 381.955 494.742 381.578 494.979 381.338L499.372 376.911C499.612 376.668 499.998 376.644 500.265 376.857L515.313 388.749L539.065 389.46C540.15 389.494 541.153 390.056 541.743 390.968L568.635 432.513C568.769 432.717 568.778 432.978 568.665 433.194C568.553 433.41 568.328 433.547 568.085 433.55L543.123 434.003C543.12 434.006 543.117 434.006 543.114 434.006ZM522.947 416.453L543.342 432.659L566.854 432.23L540.621 391.701C540.272 391.16 539.676 390.825 539.032 390.804L515.058 390.087C514.915 390.084 514.775 390.032 514.663 389.944L499.91 378.285L496.353 381.867L522.947 416.453Z" fill="#1F1F1F"/>
<path d="M564.713 436.912L537.597 395.018C537.268 394.51 536.712 394.197 536.107 394.179L511.714 393.449L495.474 380.614C494.614 379.933 493.462 380.979 494.055 381.903L519.104 420.961L539.755 437.368L564.713 436.912Z" fill="#F1F1F1"/>
<path d="M539.752 438.04C539.6 438.04 539.454 437.988 539.333 437.894L518.682 421.487C518.624 421.441 518.575 421.387 518.533 421.323L493.483 382.265C493.042 381.575 493.155 380.708 493.763 380.158C494.371 379.608 495.243 379.58 495.885 380.085L511.951 392.783L536.122 393.507C536.946 393.531 537.706 393.96 538.153 394.653L565.27 436.547C565.404 436.751 565.413 437.012 565.3 437.228C565.185 437.444 564.963 437.581 564.72 437.584L539.758 438.037C539.761 438.04 539.758 438.04 539.752 438.04ZM519.609 420.502L539.983 436.69L563.494 436.261L537.034 395.379C536.825 395.057 536.472 394.86 536.089 394.847L511.696 394.118C511.55 394.115 511.413 394.063 511.298 393.975L495.058 381.14C494.885 381.003 494.742 381.088 494.672 381.152C494.602 381.216 494.502 381.35 494.62 381.538L519.609 420.502Z" fill="#1F1F1F"/>
<path d="M536.013 431.452C535.791 431.452 535.578 431.343 535.447 431.145L513.371 397.036C513.17 396.726 513.258 396.31 513.569 396.106C513.882 395.905 514.295 395.993 514.499 396.303L536.575 430.412C536.776 430.722 536.688 431.139 536.378 431.343C536.265 431.419 536.137 431.452 536.013 431.452Z" fill="#1F1F1F"/>
<path d="M644.827 452.446C644.827 452.446 657.728 436.055 654.892 402.098C652.165 369.497 635.111 364.359 623.799 360.352C612.666 356.41 567.79 360.702 561.67 424.776C561.57 425.81 562.421 453.516 562.342 454.583L609.353 466.178L609.921 442.879L644.827 452.446Z" fill="#F1F1F1"/>
<path d="M609.353 466.85C609.298 466.85 609.246 466.844 609.192 466.832L562.181 455.237C561.862 455.158 561.646 454.863 561.67 454.535C561.704 454.036 561.515 446.892 561.348 440.59C561.096 431.072 560.947 425.253 560.999 424.712C564.312 390.02 578.944 373.856 590.633 366.402C604.227 357.732 618.33 357.702 624.021 359.72L624.936 360.042C636.059 363.958 652.87 369.877 655.558 402.043C658.385 435.872 645.483 452.699 645.353 452.863C645.185 453.076 644.909 453.167 644.647 453.094L610.572 443.755L610.025 466.193C610.019 466.397 609.921 466.588 609.76 466.71C609.642 466.801 609.499 466.85 609.353 466.85ZM563.017 454.054L608.702 465.324L609.253 442.861C609.259 442.654 609.356 442.463 609.523 442.338C609.69 442.214 609.903 442.174 610.101 442.229L644.556 451.671C646.35 449.108 656.777 432.732 654.22 402.149C651.603 370.853 635.935 365.335 624.492 361.307L623.574 360.982C618.12 359.051 604.55 359.118 591.356 367.53C579.92 374.82 565.601 390.683 562.339 424.834C562.294 425.402 562.516 433.802 562.695 440.548C562.88 447.652 563.005 452.428 563.017 454.054Z" fill="#1F1F1F"/>
<path d="M607.562 440.438C607.52 440.438 607.477 440.435 607.432 440.426C607.067 440.353 606.83 440.001 606.903 439.639L613.037 408.336C613.107 407.971 613.46 407.734 613.825 407.807C614.189 407.88 614.427 408.233 614.354 408.594L608.219 439.897C608.158 440.216 607.875 440.438 607.562 440.438Z" fill="#1F1F1F"/>
<path d="M555.037 418.407C552.639 417.59 550.419 419.201 552.128 421.387C553.493 423.132 560.029 426.904 561.072 427.555C561.327 427.713 561.224 428.196 560.932 428.132C552.508 426.278 548.121 426.403 545.841 426.98C544.233 427.384 543.263 429.02 543.604 430.64C546.063 442.335 570.213 441.007 573.04 441.344C575.36 441.621 590.553 455.596 590.553 455.596C597.424 462.7 606.729 468.424 613.451 471.772C627.219 478.627 632.293 455.353 633.688 449.558C633.688 449.558 590.432 437.781 575.232 430.23C573.232 429.236 571.395 427.956 569.714 426.488C567.778 424.794 563.595 421.32 555.037 418.407Z" fill="#F1F1F1"/>
<path d="M618.266 473.693C616.628 473.693 614.919 473.252 613.15 472.37C608.912 470.261 598.184 464.448 590.07 456.061C582.707 449.291 574.277 442.168 572.961 442.01C572.614 441.967 571.83 441.952 570.836 441.934C563.82 441.794 545.188 441.42 542.95 430.777C542.528 428.774 543.728 426.819 545.68 426.327C548.492 425.615 552.93 425.849 558.892 427.02C555.715 425.086 552.59 423.062 551.602 421.803C550.38 420.24 550.948 419.085 551.252 418.66C552.009 417.593 553.657 417.231 555.259 417.775C564.285 420.848 568.553 424.579 570.161 425.983C571.882 427.485 573.691 428.713 575.536 429.631C590.505 437.067 633.439 448.795 633.87 448.914C634.22 449.008 634.433 449.367 634.348 449.719L634.217 450.27C632.98 455.468 629.693 469.282 622.063 472.851C620.844 473.41 619.579 473.693 618.266 473.693ZM549.529 427.272C547.93 427.272 546.802 427.427 546.005 427.628C544.756 427.944 543.99 429.205 544.263 430.5C546.282 440.098 564.139 440.456 570.863 440.59C571.937 440.612 572.709 440.627 573.122 440.675C575.533 440.964 588.447 452.741 591.009 455.1C599.005 463.366 609.575 469.09 613.752 471.167C616.552 472.562 619.154 472.714 621.489 471.623C628.493 468.345 631.676 455.115 632.886 450.029C627.496 448.543 589.018 437.824 574.934 430.829C572.985 429.862 571.082 428.57 569.273 426.992C567.72 425.636 563.598 422.031 554.821 419.043C553.669 418.651 552.687 418.952 552.344 419.435C551.976 419.955 552.383 420.62 552.657 420.973C553.748 422.368 558.767 425.384 560.658 426.518C561.008 426.728 561.275 426.889 561.427 426.983C561.835 427.239 561.999 427.777 561.81 428.236C561.64 428.655 561.217 428.883 560.786 428.786C555.593 427.643 552 427.272 549.529 427.272Z" fill="#1F1F1F"/>
<path d="M611.888 331.36C612.065 331.685 617.482 346.724 620.114 352.272C621.58 355.358 623.772 358.036 626.508 360.082L631.581 363.879C628.721 366.052 624.592 368.214 617.527 370.087C610.32 371.996 604.203 371.61 600.622 371.111C600.932 370.132 601.455 368.858 602.364 367.524C603.796 365.423 605.501 364.174 606.589 363.505C604.276 359.532 598.722 343.967 596.409 339.997L611.888 331.36Z" fill="#F1F1F1"/>
<path d="M606.556 372.196C604.55 372.196 602.54 372.056 600.531 371.777C600.333 371.749 600.16 371.637 600.053 371.47C599.947 371.303 599.92 371.096 599.98 370.907C600.406 369.567 601.02 368.302 601.808 367.147C602.847 365.621 604.154 364.32 605.699 363.28C604.507 361.018 602.741 356.629 600.877 352.002C598.953 347.22 596.962 342.28 595.831 340.334C595.74 340.179 595.715 339.994 595.764 339.817C595.813 339.644 595.928 339.495 596.083 339.407L611.56 330.77C611.718 330.682 611.9 330.661 612.074 330.713C612.247 330.761 612.39 330.88 612.478 331.035C612.536 331.141 612.636 331.403 613.436 333.555C615.153 338.176 618.731 347.788 620.722 351.98C622.133 354.953 624.273 357.568 626.912 359.541L631.986 363.338C632.156 363.465 632.253 363.663 632.256 363.873C632.256 364.083 632.159 364.283 631.992 364.411C628.496 367.065 623.957 369.074 617.704 370.731C614.037 371.71 610.307 372.196 606.556 372.196ZM601.534 370.552C606.854 371.187 612.174 370.813 617.36 369.439C623.008 367.943 627.201 366.165 630.457 363.876L626.109 360.623C623.297 358.519 621.017 355.732 619.512 352.561C617.497 348.314 613.907 338.665 612.18 334.026C611.937 333.369 611.709 332.761 611.545 332.324L597.327 340.261C598.518 342.532 600.278 346.904 602.13 351.503C604.054 356.285 606.045 361.225 607.176 363.171C607.359 363.487 607.258 363.891 606.948 364.083C605.331 365.077 603.975 366.363 602.926 367.907C602.361 368.731 601.896 369.618 601.534 370.552Z" fill="#1F1F1F"/>
<path d="M579.986 312.141C585.908 308.998 591.016 314.564 597.977 310.648C601.166 308.855 601.862 306.693 605.386 306.07C607.717 305.657 611.678 305.851 613.843 308.32C616.597 311.463 613.417 314.853 614.302 324.076C614.925 330.554 616.959 333.728 615.08 335.576C613.183 337.446 610.107 335.181 607.881 337.066C605 339.507 608.265 344.897 606.13 348.737C604.781 351.163 600.357 354.029 591.061 353.826C589.611 353.795 588.38 352.743 588.146 351.312C587.836 349.402 587.45 346.967 587.279 344.611C586.483 333.555 588.881 329.87 586.535 327.989C582.941 325.107 576.804 330.524 574.213 327.989C571.526 325.356 573.906 315.37 579.986 312.141Z" fill="#1F1F1F"/>
<path d="M599.999 321.523L598.36 324.392C598.36 324.392 600.348 334.862 600.315 338.659C600.281 342.456 588.517 343.24 588.517 343.24L587.2 339.948L584.644 339.556C584.13 339.477 583.792 338.978 583.917 338.474C584.4 336.495 585.392 331.625 584.966 326.356C584.799 324.259 586.066 322.322 588.021 321.547C590.794 320.443 595.034 319.61 599.999 321.523Z" fill="#F1F1F1"/>
<path d="M588.517 343.912C588.243 343.912 587.994 343.745 587.893 343.49L586.72 340.553L584.543 340.219C584.112 340.152 583.726 339.905 583.482 339.544C583.242 339.182 583.163 338.735 583.264 338.312C583.713 336.467 584.717 331.615 584.297 326.408C584.106 324.028 585.504 321.824 587.775 320.921C590.587 319.802 595.034 318.89 600.239 320.896C600.421 320.966 600.564 321.112 600.631 321.298C600.698 321.483 600.68 321.687 600.582 321.857L599.065 324.511C599.373 326.146 601.017 335.127 600.987 338.665C600.95 342.872 590.629 343.772 588.562 343.912C588.547 343.912 588.532 343.912 588.517 343.912ZM594.022 321.057C591.715 321.057 589.751 321.583 588.273 322.17C586.553 322.854 585.495 324.514 585.638 326.301C586.073 331.707 585.036 336.726 584.571 338.632C584.553 338.705 584.577 338.762 584.598 338.799C584.616 338.829 584.662 338.881 584.747 338.893L587.304 339.285C587.538 339.322 587.738 339.48 587.827 339.699L588.961 342.535C593.545 342.161 599.628 340.766 599.646 338.653C599.68 334.965 597.725 324.62 597.704 324.517C597.673 324.359 597.701 324.198 597.78 324.058L599.02 321.884C597.232 321.288 595.551 321.057 594.022 321.057Z" fill="#1F1F1F"/>
<path d="M602.023 330.825C602.023 330.825 602.595 323.581 605.462 324.408C608.328 325.231 607.523 333.199 602.023 330.825Z" fill="#F1F1F1"/>
<path d="M231.697 612.095C231.697 612.095 227.514 631.198 232.14 636.655L233.575 638.996L229.1 640.905C223.419 643.331 216.831 642.249 212.241 638.135L211.624 637.582L212.709 635.168C214.642 630.873 217.968 617.543 217.649 613.004L231.697 612.095Z" fill="#F1F1F1"/>
<path d="M222.862 642.851C218.844 642.851 214.873 641.4 211.791 638.637L211.174 638.084C210.955 637.889 210.888 637.573 211.009 637.309L212.098 634.895C213.98 630.715 217.287 617.43 216.98 613.056C216.968 612.876 217.026 612.7 217.144 612.566C217.263 612.432 217.43 612.35 217.606 612.338L231.654 611.429C231.864 611.417 232.071 611.502 232.207 611.66C232.344 611.821 232.399 612.037 232.353 612.241C232.311 612.429 228.295 631.08 232.651 636.223C232.672 636.251 232.694 636.278 232.712 636.305L234.147 638.646C234.25 638.813 234.275 639.014 234.214 639.203C234.153 639.388 234.016 639.54 233.837 639.616L229.365 641.525C227.273 642.416 225.06 642.851 222.862 642.851ZM212.435 637.409L212.688 637.634C217.068 641.562 223.407 642.601 228.833 640.285L232.59 638.68L231.587 637.047C227.377 631.98 230.085 616.691 230.855 612.821L218.336 613.63C218.342 618.774 215.208 631.244 213.317 635.442L212.435 637.409Z" fill="#1F1F1F"/>
<path d="M233.323 630.113L235.843 632.35C240.865 636.81 246.888 639.972 253.39 641.562L254.63 641.866C255.102 641.981 255.488 642.325 255.658 642.784L255.746 643.018C256.713 645.614 254.399 652.086 244.978 655.36C242.531 656.211 235.989 655.576 226.267 655.567C222.051 655.564 217.704 655.555 215.183 655.549C212.709 655.543 210.259 654.877 208.21 653.478C205.917 651.919 203.841 649.298 204.708 645.067C205.556 640.917 208.894 632.794 210.699 629.736C211.049 629.146 211.809 629.012 212.359 629.42L214.232 634.01C215.5 637.117 218.673 639.114 221.966 638.607C222.172 638.576 222.382 638.534 222.592 638.488C224.705 638.005 226.526 636.658 227.799 634.892L231.07 630.362C231.599 629.627 232.645 629.511 233.323 630.113Z" fill="#F1F1F1"/>
<path d="M240.136 656.476C238.68 656.476 236.974 656.433 235.01 656.382C232.454 656.318 229.553 656.242 226.264 656.242C222.048 656.239 217.697 656.23 215.177 656.223C212.457 656.217 209.915 655.46 207.827 654.038C204.586 651.831 203.279 648.684 204.042 644.936C204.887 640.799 208.179 632.676 210.116 629.399C210.377 628.955 210.8 628.654 211.298 628.55C211.803 628.45 212.332 628.569 212.754 628.882C212.852 628.955 212.931 629.055 212.976 629.167L214.849 633.758C216.019 636.628 218.965 638.388 221.859 637.944C222.051 637.914 222.242 637.877 222.437 637.835C224.294 637.409 226.006 636.223 227.252 634.5L230.526 629.97C230.891 629.465 231.453 629.137 232.074 629.067C232.691 629 233.308 629.198 233.773 629.608L236.293 631.846C241.215 636.217 247.182 639.348 253.554 640.908L254.795 641.212C255.485 641.379 256.044 641.881 256.293 642.55L256.381 642.784C256.859 644.063 256.643 645.83 255.795 647.635C254.81 649.727 252.125 653.591 245.206 655.995C244.133 656.363 242.452 656.476 240.136 656.476ZM211.657 629.858C211.627 629.858 211.596 629.861 211.566 629.867C211.481 629.885 211.359 629.937 211.274 630.079C209.429 633.205 206.167 641.251 205.361 645.203C204.705 648.423 205.787 651.019 208.584 652.925C210.45 654.196 212.733 654.871 215.18 654.877C217.701 654.883 222.048 654.892 226.264 654.895C229.572 654.898 232.478 654.971 235.044 655.038C239.81 655.159 243.255 655.248 244.756 654.725C251.213 652.481 253.676 648.961 254.57 647.061C255.378 645.343 255.381 643.966 255.114 643.252L255.026 643.018C254.931 642.768 254.725 642.58 254.466 642.516L253.226 642.212C246.641 640.604 240.476 637.366 235.39 632.852L232.87 630.615C232.688 630.45 232.454 630.377 232.21 630.402C231.967 630.429 231.751 630.554 231.608 630.754L228.334 635.284C226.896 637.272 224.908 638.643 222.732 639.142C222.504 639.193 222.279 639.236 222.057 639.269C218.506 639.817 215.025 637.755 213.596 634.263L211.812 629.885C211.766 629.87 211.712 629.858 211.657 629.858Z" fill="#1F1F1F"/>
<path d="M219.889 651.724C211.967 651.724 208.058 647.538 207.887 647.353C207.638 647.079 207.656 646.654 207.93 646.404C208.204 646.155 208.629 646.173 208.878 646.447C208.936 646.508 212.912 650.7 220.816 650.359C226.748 650.104 235.512 650.21 240.206 650.295C243.005 650.344 245.605 649.599 247.775 648.134C248.493 647.648 249.037 647.167 249.389 646.702C249.614 646.407 250.034 646.347 250.332 646.571C250.627 646.796 250.684 647.216 250.463 647.514C250.022 648.098 249.371 648.681 248.529 649.247C246.128 650.867 243.24 651.697 240.181 651.639C235.503 651.554 226.772 651.451 220.874 651.703C220.54 651.718 220.212 651.724 219.889 651.724Z" fill="#1F1F1F"/>
<path d="M169.155 610.985C169.155 610.985 163.4 622.662 165.191 629.292L165.516 631.928L146.841 620.279L148.902 618.947C152.988 616.244 157.013 611.873 158.366 607.699L169.155 610.985Z" fill="#F1F1F1"/>
<path d="M165.519 632.6C165.394 632.6 165.273 632.566 165.163 632.496L146.488 620.847C146.294 620.725 146.175 620.513 146.172 620.282C146.169 620.051 146.288 619.838 146.479 619.713L148.54 618.382C152.915 615.488 156.524 611.21 157.73 607.489C157.843 607.14 158.217 606.948 158.566 607.055L169.352 610.344C169.541 610.402 169.696 610.538 169.772 610.721C169.851 610.9 169.845 611.107 169.757 611.283C169.699 611.399 164.136 622.811 165.841 629.119C165.85 629.149 165.856 629.18 165.859 629.21L166.185 631.846C166.218 632.104 166.1 632.356 165.881 632.496C165.771 632.563 165.644 632.6 165.519 632.6ZM148.1 620.266L164.68 630.611L164.534 629.423C162.968 623.507 166.987 614.077 168.218 611.402L158.791 608.526C157.323 612.362 153.66 616.606 149.279 619.503L148.1 620.266Z" fill="#1F1F1F"/>
<path d="M167.312 625.419L167.653 628.639C168.325 635.016 170.526 641.133 174.061 646.462L176.779 650.557C177.037 650.946 177.089 651.442 176.916 651.876L176.828 652.098C175.843 654.558 170.064 657.607 161.327 653.761C155.922 651.384 150.468 644.1 134.909 629.432C134.107 628.675 134.362 627.289 135.061 626.431C137.609 623.306 143.987 616.065 149.684 614.314C150.316 614.12 150.982 614.503 151.109 615.159L152.334 621.467C152.885 624.297 155.608 626.137 158.411 625.571L165.571 624.124C166.413 623.951 167.221 624.553 167.312 625.419Z" fill="#F1F1F1"/>
<path d="M169.17 656.26C167.008 656.26 164.291 655.801 161.056 654.375C157.515 652.816 154.122 649.393 147.96 643.176C144.476 639.662 140.141 635.287 134.447 629.921C133.35 628.888 133.632 627.119 134.538 626.009C137.071 622.902 143.597 615.481 149.483 613.673C149.972 613.524 150.501 613.588 150.939 613.846C151.368 614.104 151.669 614.536 151.766 615.028L152.991 621.336C153.225 622.537 153.909 623.568 154.918 624.243C155.912 624.908 157.107 625.146 158.278 624.909L165.437 623.461C166.024 623.343 166.638 623.477 167.121 623.832C167.607 624.191 167.924 624.741 167.987 625.346L168.328 628.566C168.988 634.81 171.164 640.868 174.63 646.088L177.348 650.183C177.728 650.758 177.804 651.481 177.548 652.123L177.46 652.341C176.971 653.56 175.682 654.673 173.915 655.394C172.894 655.81 171.304 656.26 169.17 656.26ZM150.015 614.937C149.969 614.937 149.921 614.943 149.875 614.959C144.342 616.658 138.031 623.848 135.578 626.857C135.07 627.48 134.864 628.468 135.368 628.943C141.077 634.326 145.421 638.707 148.914 642.23C154.961 648.329 158.29 651.691 161.597 653.144C167.574 655.774 171.556 654.904 173.399 654.153C175.055 653.475 175.934 652.518 176.201 651.846L176.29 651.624C176.381 651.393 176.356 651.131 176.22 650.925L173.502 646.83C169.921 641.431 167.665 635.165 166.984 628.705L166.644 625.486C166.619 625.255 166.504 625.051 166.318 624.915C166.136 624.781 165.917 624.732 165.698 624.778L158.539 626.225C157.013 626.535 155.463 626.225 154.168 625.358C152.857 624.483 151.973 623.145 151.669 621.589L150.444 615.281C150.41 615.117 150.304 615.028 150.243 614.992C150.173 614.959 150.094 614.937 150.015 614.937Z" fill="#1F1F1F"/>
<path d="M170.769 650.998C170.736 650.998 170.702 650.995 170.669 650.992L169.203 650.776C164.315 650.055 159.7 647.718 156.21 644.194L139.962 627.799C139.7 627.535 139.703 627.109 139.965 626.848C140.229 626.587 140.655 626.59 140.916 626.851L157.165 643.246C160.454 646.562 164.798 648.763 169.401 649.444L170.866 649.66C171.234 649.715 171.486 650.055 171.432 650.423C171.383 650.758 171.097 650.998 170.769 650.998Z" fill="#1F1F1F"/>
<path d="M242.507 419.529C255.29 423.077 263.206 425.244 263.206 425.244C263.206 425.244 237.743 516.608 230.371 539.5C223.689 560.251 179.895 605.449 172.128 614.6C171.325 615.545 169.048 616.5 169.048 616.5C164.583 617.579 159.913 615.819 157.241 612.049C157.241 612.049 155.833 608.885 156.165 607.273L158.597 595.405C167.829 557.746 185.486 539.104 192.967 499.791C204.258 440.453 212.7 427.053 214.588 422.548C220.427 408.579 242.507 419.529 242.507 419.529Z" fill="#1F1F1F"/>
<path d="M284.897 421.219C287.158 442.642 285.821 479.612 283.741 496.313C278.02 542.281 240.017 606.954 233.013 620.087C232.116 621.768 230.462 622.911 228.581 623.124C223.194 623.738 221.196 622.397 218.442 620.987C216.463 619.975 215.311 617.898 215.262 615.661C214.317 570.629 223.911 532.064 233.861 507.501C237.701 498.025 241.899 444.12 241.379 424.691L284.897 421.219Z" fill="#1F1F1F"/>
<path d="M216.357 570.635C216.317 570.635 216.275 570.632 216.232 570.623C215.867 570.556 215.627 570.204 215.694 569.839C220.19 545.607 223.969 530.586 228.322 519.609C234.402 504.281 237.6 488.324 237.822 472.185L237.932 464.172C237.938 463.801 238.269 463.512 238.613 463.509C238.983 463.515 239.281 463.819 239.275 464.19L239.166 472.203C238.941 488.507 235.712 504.625 229.572 520.104C225.252 530.997 221.494 545.941 217.016 570.082C216.956 570.41 216.673 570.635 216.357 570.635Z" fill="#F1F1F1"/>
<path d="M329.992 329.235C331.019 327.226 331.515 325.964 331.679 325.389C331.679 325.389 332.062 324.69 331.956 323.757C331.624 320.869 330.424 313.786 332.436 311.056C335.804 306.487 340.407 309.068 340.407 309.068C340.407 309.068 342.517 304.809 345.222 306.414C347.299 307.645 349.32 310.341 348.965 314.531C348.481 320.243 347.511 325.7 341.45 328.961C340.273 329.594 339.337 330.603 338.817 331.84L329.992 329.235Z" fill="#F1F1F1"/>
<path d="M338.814 332.512C338.75 332.512 338.686 332.503 338.623 332.485L329.8 329.88C329.609 329.822 329.451 329.685 329.372 329.5C329.293 329.317 329.299 329.107 329.39 328.928C330.354 327.043 330.868 325.766 331.029 325.204C331.044 325.155 331.062 325.107 331.086 325.064C331.086 325.064 331.363 324.523 331.284 323.83C331.248 323.511 331.199 323.14 331.147 322.732C330.697 319.203 329.943 313.296 331.889 310.655C334.813 306.687 338.644 307.636 340.115 308.204C340.62 307.387 341.696 305.927 343.14 305.502C343.964 305.259 344.775 305.371 345.557 305.833C346.633 306.472 350.102 308.986 349.627 314.585C349.144 320.276 348.138 326.119 341.76 329.551C340.708 330.117 339.881 331.023 339.428 332.099C339.328 332.354 339.079 332.512 338.814 332.512ZM330.956 328.819L338.455 331.032C339.057 329.913 339.988 328.98 341.128 328.366C346.922 325.247 347.822 320.012 348.293 314.47C348.7 309.648 345.782 307.523 344.876 306.988C344.423 306.721 343.982 306.654 343.526 306.791C342.328 307.143 341.301 308.767 341.006 309.363C340.924 309.527 340.778 309.651 340.602 309.706C340.425 309.761 340.234 309.74 340.076 309.651C339.908 309.56 335.938 307.429 332.974 311.454C331.348 313.664 332.087 319.452 332.482 322.565C332.533 322.982 332.582 323.359 332.622 323.681C332.731 324.645 332.424 325.396 332.305 325.639C332.19 326.031 331.852 326.998 330.956 328.819Z" fill="#1F1F1F"/>
<path d="M324.544 336.805L316.604 327.001L321.529 323.383C321.799 323.182 322.115 323.052 322.447 322.997L323.049 322.9C323.806 322.778 324.441 322.252 324.702 321.538C324.845 321.149 325.101 320.808 325.438 320.562L362.012 293.643C362.313 293.421 362.645 293.238 362.991 293.105L373.686 288.943L367.606 298.145C367.275 298.647 366.879 299.103 366.429 299.504L332.6 329.639C332.312 329.898 331.959 330.071 331.579 330.141L331.485 330.159C330.758 330.296 330.15 330.807 329.889 331.497L329.758 331.846C329.639 332.166 329.442 332.451 329.183 332.682L324.544 336.805Z" fill="#F1F1F1"/>
<path d="M324.544 337.48C324.526 337.48 324.508 337.48 324.49 337.476C324.307 337.461 324.137 337.373 324.021 337.23L316.081 327.426C315.965 327.283 315.914 327.101 315.938 326.919C315.962 326.736 316.06 326.572 316.206 326.463L321.127 322.845C321.483 322.584 321.903 322.407 322.334 322.337L322.936 322.24C323.453 322.155 323.888 321.799 324.067 321.31C324.256 320.796 324.59 320.352 325.034 320.024L361.608 293.105C361.958 292.846 362.338 292.636 362.742 292.481L373.437 288.32C373.71 288.213 374.02 288.295 374.203 288.523C374.385 288.751 374.4 289.071 374.239 289.317L368.159 298.519C367.797 299.066 367.363 299.568 366.87 300.008L333.041 330.144C332.661 330.481 332.196 330.712 331.697 330.807L331.603 330.825C331.108 330.919 330.688 331.269 330.512 331.74L330.381 332.09C330.223 332.509 329.962 332.889 329.624 333.19L324.991 337.318C324.87 337.419 324.708 337.48 324.544 337.48ZM317.571 327.125L324.623 335.835L328.73 332.175C328.904 332.02 329.04 331.822 329.123 331.606L329.253 331.257C329.594 330.351 330.399 329.676 331.354 329.493L331.448 329.475C331.707 329.427 331.95 329.308 332.147 329.132L365.976 298.996C366.384 298.634 366.74 298.221 367.037 297.768L371.953 290.329L363.228 293.725C362.936 293.84 362.657 293.992 362.404 294.178L325.83 321.097C325.599 321.267 325.426 321.498 325.329 321.763C324.982 322.708 324.149 323.395 323.152 323.559L322.55 323.657C322.325 323.693 322.106 323.784 321.921 323.921L317.571 327.125Z" fill="#1F1F1F"/>
<path d="M364.618 296.576C364.429 296.576 364.241 296.497 364.107 296.342L361.988 293.88C361.745 293.597 361.778 293.175 362.058 292.931C362.341 292.688 362.763 292.722 363.006 293.001L365.125 295.464C365.368 295.746 365.335 296.169 365.055 296.412C364.928 296.522 364.773 296.576 364.618 296.576Z" fill="#1F1F1F"/>
<path d="M308.399 333.394L316.75 326.836L324.617 336.789L316.266 343.347C314.737 344.548 312.539 344.313 311.363 342.821L307.767 338.27C306.584 336.777 306.87 334.595 308.399 333.394Z" fill="#1F1F1F"/>
<path d="M314.059 344.785C312.837 344.785 311.636 344.256 310.834 343.237L307.238 338.686C306.566 337.835 306.265 336.768 306.396 335.683C306.529 334.567 307.092 333.567 307.985 332.865L316.336 326.308C316.628 326.08 317.048 326.128 317.279 326.42L325.143 336.373C325.253 336.513 325.304 336.692 325.283 336.868C325.262 337.045 325.171 337.206 325.031 337.318L316.68 343.876C315.902 344.487 314.974 344.785 314.059 344.785ZM308.815 333.923C308.204 334.403 307.818 335.084 307.73 335.841C307.645 336.571 307.843 337.285 308.292 337.853L311.889 342.404C312.837 343.605 314.613 343.788 315.85 342.818L323.669 336.677L316.637 327.779L308.815 333.923Z" fill="#1F1F1F"/>
<path d="M314.075 340.389C313.871 340.389 313.67 340.298 313.536 340.121C313.312 339.826 313.372 339.404 313.667 339.179L318.303 335.677C318.601 335.452 319.021 335.513 319.246 335.808C319.471 336.102 319.41 336.525 319.115 336.75L314.479 340.252C314.36 340.346 314.217 340.389 314.075 340.389Z" fill="#F1F1F1"/>
<path d="M331.679 325.389C331.679 325.389 332.84 319.194 336.911 315.218C339.407 312.78 341.729 302.206 346.481 307.28C347.505 308.375 348.217 309.046 348.782 310.81C349.092 311.773 349.509 314.175 349.408 315.351C348.922 321.07 347.502 325.706 341.425 328.968C340.255 329.597 339.328 330.603 338.811 331.837C338.48 332.628 331.442 381.289 321.322 387.22C309.815 393.963 289.785 368.302 289.785 368.302L307.183 350.001C307.183 350.001 315.205 359.997 316.355 360.477C317.239 360.845 331.679 325.389 331.679 325.389Z" fill="#F1F1F1"/>
<path d="M317.017 389.023C305.262 389.023 289.989 369.655 289.256 368.716C289.052 368.454 289.071 368.08 289.299 367.84L306.696 349.539C306.83 349.399 307.01 349.317 307.21 349.329C307.405 349.339 307.584 349.43 307.706 349.579C311.086 353.792 314.92 358.319 316.251 359.556C318.096 356.416 326.101 337.288 331.029 325.192C331.178 324.453 332.448 318.629 336.44 314.731C337.093 314.096 337.79 312.719 338.528 311.266C339.942 308.475 341.407 305.587 343.639 305.271C344.742 305.116 345.864 305.633 346.973 306.818L347.177 307.034C348.113 308.028 348.852 308.812 349.427 310.6C349.764 311.655 350.19 314.135 350.083 315.403C349.567 321.489 347.952 326.225 341.748 329.557C340.708 330.114 339.887 331.017 339.437 332.093C339.41 332.202 339.234 333.224 339.03 334.409C333.546 366.299 327.703 384.259 321.665 387.795C320.215 388.649 318.65 389.023 317.017 389.023ZM290.679 368.342C293.415 371.707 310.934 392.531 320.984 386.642C324.888 384.356 330.959 373.397 337.704 334.187C338.084 331.977 338.13 331.734 338.197 331.579C338.768 330.217 339.802 329.08 341.112 328.378C346.803 325.323 348.25 321.109 348.743 315.297C348.831 314.239 348.445 311.95 348.147 311.016C347.663 309.518 347.083 308.897 346.198 307.958L345.995 307.739C345.204 306.894 344.478 306.514 343.83 306.605C342.292 306.824 340.872 309.627 339.729 311.877C338.939 313.433 338.194 314.904 337.382 315.698C333.515 319.474 332.351 325.453 332.339 325.511C332.33 325.557 332.318 325.599 332.299 325.642C332.263 325.727 328.733 334.391 325.104 343.006C317.656 360.678 317.075 360.918 316.652 361.094C316.488 361.164 316.263 361.167 316.096 361.097C314.987 360.635 309.794 354.312 307.14 351.023L290.679 368.342Z" fill="#1F1F1F"/>
<path d="M180.999 438.936C180.67 439.867 181.494 441.694 181.379 442.454C180.953 445.226 176.831 449.117 173.797 451.65C171.386 453.662 169.963 456.654 169.954 459.812C169.951 460.557 169.988 461.366 170.033 462.238C170.134 464.238 169.492 465.299 168.629 465.837C166.929 466.895 164.716 465.661 164.5 463.658C164.029 459.277 163.251 450.203 164.479 447.002C165.285 444.898 167.884 442.144 170.319 439.888C172.712 437.672 174.037 434.525 174.022 431.245C173.973 419.909 180.263 386.807 187.647 363.572L206.109 373.829C206.106 373.829 193.122 404.53 180.999 438.936Z" fill="#F1F1F1"/>
<path d="M167.282 466.892C166.787 466.892 166.285 466.78 165.817 466.549C164.707 466.008 163.965 464.953 163.835 463.728C163.303 458.794 162.6 450.026 163.853 446.758C164.561 444.91 166.583 442.432 169.863 439.392C172.094 437.325 173.365 434.358 173.35 431.245C173.301 420.113 179.384 387.351 187.006 363.365C187.066 363.174 187.209 363.019 187.398 362.943C187.586 362.87 187.796 362.882 187.972 362.979L206.434 373.236C206.735 373.403 206.86 373.768 206.726 374.084C206.595 374.391 193.611 405.159 181.634 439.152C181.509 439.502 181.698 440.311 181.835 440.9C181.984 441.542 182.111 442.095 182.041 442.548C181.591 445.476 177.542 449.388 174.225 452.157C171.945 454.06 170.632 456.848 170.623 459.806C170.62 460.545 170.66 461.36 170.702 462.199C170.805 464.214 170.225 465.628 168.981 466.403C168.462 466.731 167.875 466.892 167.282 466.892ZM188.039 364.56C180.57 388.36 174.648 420.329 174.694 431.245C174.709 434.732 173.28 438.061 170.775 440.384C167.689 443.241 165.729 445.612 165.105 447.245C164.263 449.44 164.288 455.395 165.169 463.588C165.251 464.351 165.713 465.008 166.407 465.345C167.03 465.649 167.708 465.622 168.276 465.269C169.073 464.773 169.44 463.764 169.364 462.275C169.322 461.417 169.282 460.584 169.285 459.812C169.295 456.456 170.784 453.294 173.371 451.136C177.807 447.433 180.418 444.314 180.719 442.353C180.749 442.159 180.628 441.636 180.53 441.216C180.336 440.384 180.117 439.435 180.372 438.718C191.477 407.199 203.449 378.45 205.261 374.13L188.039 364.56Z" fill="#1F1F1F"/>
<path d="M220.892 317.738C240.37 311.478 273.697 314.634 283.808 322.106C296.941 331.816 309.347 347.521 314.211 354.02C315.564 355.829 315.774 358.249 314.756 360.27C310.384 368.953 300.668 390.403 295.148 386.36C289.651 382.335 282.668 374.75 283.064 378.723C284.109 389.26 285.906 424.457 285.906 424.457C285.906 424.457 280.124 426.451 279.875 431.181L279.282 443.998C279.139 445.491 277.552 446.366 276.23 445.679C265.605 440.152 223.537 434.857 207.848 426.269C205.969 425.241 204.951 423.125 205.316 420.997C207.155 410.303 217.795 387.706 213.49 374.108C213.046 372.707 209.693 378.51 205.638 381.967C204.987 382.523 204.042 382.554 203.373 382.022L184.811 367.223C183.166 365.913 182.573 363.669 183.358 361.708C187.212 352.068 199.871 324.493 220.892 317.738Z" fill="#F1F1F1"/>
<path d="M277.187 446.588C276.752 446.588 276.315 446.485 275.916 446.278C271.314 443.883 260.312 441.448 248.666 438.867C233.533 435.513 216.381 431.713 207.523 426.865C205.392 425.697 204.236 423.299 204.653 420.891C205.203 417.69 206.495 413.552 207.994 408.758C211.417 397.799 215.661 384.213 213.007 374.841C212.545 375.294 211.818 376.182 211.158 376.987C209.757 378.699 208.015 380.83 206.072 382.484C205.176 383.25 203.865 383.277 202.953 382.551L184.391 367.752C182.528 366.268 181.847 363.681 182.734 361.465C187.17 350.369 199.743 323.83 220.686 317.099C240.941 310.591 274.181 314.157 284.207 321.568C297.449 331.357 309.977 347.244 314.749 353.622C316.263 355.647 316.497 358.31 315.354 360.574C314.914 361.453 314.415 362.462 313.874 363.563C308.25 374.984 302.352 386.235 297.482 387.43C296.482 387.676 295.564 387.5 294.752 386.904C293.059 385.663 291.265 384.125 289.533 382.636C287.447 380.845 284.626 378.422 283.729 378.282C283.72 378.355 283.717 378.474 283.735 378.656C284.772 389.09 286.56 424.071 286.578 424.424C286.593 424.721 286.408 424.995 286.128 425.092C286.073 425.111 280.771 427.001 280.546 431.218L279.957 444.028C279.865 444.992 279.324 445.81 278.51 446.254C278.093 446.479 277.64 446.588 277.187 446.588ZM213.238 373.224C213.302 373.224 213.362 373.23 213.429 373.242C213.587 373.272 213.97 373.397 214.132 373.911C217.229 383.697 212.818 397.814 209.277 409.16C207.793 413.905 206.513 418.006 205.978 421.119C205.662 422.958 206.544 424.794 208.17 425.685C216.861 430.443 233.913 434.221 248.958 437.556C261.203 440.268 271.776 442.612 276.537 445.089C276.959 445.308 277.443 445.305 277.859 445.077C278.288 444.843 278.561 444.43 278.607 443.937L279.197 431.154C279.428 426.81 283.735 424.63 285.204 424.01C284.985 419.739 283.358 388.521 282.389 378.793C282.304 377.921 282.519 377.34 283.039 377.072C284.27 376.431 286.301 378.097 290.402 381.617C292.117 383.089 293.889 384.612 295.54 385.822C296.029 386.18 296.543 386.278 297.157 386.126C301.826 384.98 308.876 370.664 312.664 362.97C313.208 361.866 313.707 360.851 314.151 359.969C315.06 358.164 314.874 356.039 313.667 354.424C308.931 348.095 296.5 332.33 283.401 322.647C273.822 315.567 240.64 312.096 221.09 318.379C200.12 325.119 187.379 353.443 183.975 361.964C183.306 363.636 183.82 365.584 185.221 366.703L203.783 381.502C204.197 381.833 204.777 381.815 205.191 381.462C207.039 379.884 208.742 377.808 210.11 376.136C211.858 374.008 212.539 373.224 213.238 373.224Z" fill="#1F1F1F"/>
<path d="M277.892 280.03C279.543 280.595 280.309 284.024 280.571 285.766C281.431 291.496 278.467 304.939 274.348 305.818C270.292 306.684 270.636 304.836 267.544 306.569C265.076 307.952 264.754 310.484 263.632 315.95C263.562 316.297 270.657 318.315 270.782 318.65C271.065 319.404 266.678 328.679 253.019 326.943C240.078 325.298 238.278 316.452 238.23 315.832C238.199 315.461 247.997 314.774 248.17 314.418C250.438 309.73 252.119 301.571 252.119 301.571C252.119 301.571 260.525 274.077 277.892 280.03Z" fill="#F1F1F1"/>
<path d="M256.284 327.824C255.238 327.824 254.123 327.755 252.94 327.606C238.974 325.83 237.573 315.978 237.564 315.88C237.497 315.038 237.822 315.002 243.243 314.427C244.851 314.257 246.997 314.029 247.681 313.883C249.83 309.287 251.448 301.513 251.463 301.434C251.679 300.717 256.506 285.249 266.544 280.124C270.195 278.26 274.083 278.017 278.111 279.394C280.115 280.081 280.929 283.62 281.236 285.666C282.1 291.411 279.154 305.477 274.491 306.475C272.518 306.897 271.502 306.715 270.691 306.569C269.855 306.42 269.35 306.329 267.876 307.156C265.872 308.277 265.456 310.338 264.544 314.847L264.386 315.628C265.058 315.911 266.59 316.415 267.663 316.771C271.125 317.917 271.256 317.999 271.411 318.413C271.685 319.142 270.788 320.769 269.836 321.976C268.353 323.851 264.267 327.824 256.284 327.824ZM239.014 316.288C239.525 318.2 242.087 324.873 253.104 326.274C260.188 327.174 264.523 325.009 266.915 323.036C268.876 321.416 269.797 319.723 270.049 319.015C269.453 318.777 268.204 318.364 267.24 318.045C263.234 316.719 262.817 316.583 262.975 315.813L263.228 314.579C264.194 309.803 264.678 307.408 267.219 305.982C269.113 304.921 269.955 305.07 270.928 305.246C271.66 305.377 272.493 305.529 274.211 305.161C277.561 304.447 280.814 291.901 279.908 285.866C279.488 283.07 278.592 280.981 277.677 280.668C274.01 279.412 270.472 279.631 267.161 281.322C257.631 286.183 252.816 301.614 252.767 301.769C252.712 302.045 251.058 310.004 248.781 314.71C248.563 315.163 248.535 315.221 243.388 315.768C241.878 315.923 239.923 316.133 239.014 316.288ZM264.295 316.081C264.292 316.081 264.292 316.081 264.295 316.081V316.081Z" fill="#1F1F1F"/>
<path d="M270.055 292.427C270.025 292.427 269.995 292.424 269.964 292.421C267.292 292.053 265.511 288.453 265.334 285.188C265.188 282.498 266.137 280.632 267.873 280.194C270.788 279.464 273.108 283.824 273.205 284.009C273.378 284.337 273.25 284.745 272.922 284.915C272.594 285.088 272.186 284.96 272.016 284.632C271.487 283.626 269.773 281.1 268.201 281.495C266.952 281.808 266.596 283.568 266.678 285.112C266.824 287.788 268.253 290.825 270.15 291.086C270.517 291.138 270.776 291.475 270.724 291.843C270.672 292.184 270.384 292.427 270.055 292.427Z" fill="#1F1F1F"/>
<path d="M284.213 274.515C284.945 278.534 280.911 279.452 277.71 281.96C274.403 284.547 274.527 284.462 273.044 285.228C272.056 285.739 271.673 281.899 268.988 281.364C266.985 280.966 266.483 282.659 266.049 283.146C264.298 285.109 282.209 324.462 273.111 348.515C267.307 363.858 252.408 370.667 219.287 367.612C191.569 365.055 184.233 336.975 189.143 326.672C201.886 299.939 228.514 324.48 234.782 284.623C239.175 256.679 265.295 244.234 281.258 266.912C282.869 269.204 283.748 271.961 284.213 274.515Z" fill="#1F1F1F"/>
</svg>
